<?xml version="1.0" encoding="utf-8"?>
<!-- Generator: Adobe Illustrator 19.0.0, SVG Export Plug-In . SVG Version: 6.00 Build 0)  -->
<svg version="1.1" id="Layer_1" xmlns="http://www.w3.org/2000/svg" xmlns:xlink="http://www.w3.org/1999/xlink" x="0px" y="0px"
	 width="2800px" height="2800px" viewBox="0 0 2800 2800" enable-background="new 0 0 2800 2800" xml:space="preserve">
<rect id="XMLID_751_" fill="#C7E6F5" width="2800" height="2800"/>
<g id="XMLID_583_" opacity="0.8">
	<g id="XMLID_36_">
		<path id="XMLID_54_" fill="#FFFFFF" d="M1552,808.6c7.7,0,15.2,0.8,22.5,2.2c12.9-54.1,61.5-94.3,119.5-94.3
			c45.3,0,84.8,24.6,106.1,61c14.6-9.3,31.8-14.9,50.4-14.9c35.7,0,66.4,20.2,82.3,49.5c9.1-2.2,18.5-3.5,28.3-3.5
			c66.2,0,119.8,53.6,119.8,119.8c0,66.2-53.6,119.8-119.8,119.8c-18.1,0-35.2-4.1-50.6-11.3c-22.5,29.5-57.9,48.7-97.8,48.7
			c-22.9,0-44.2-6.4-62.6-17.2c-22.1,21.2-52.1,34.3-85.1,34.3c-42.8,0-80.4-21.8-102.4-55c-3.5,0.3-6.9,0.5-10.5,0.5
			c-66.2,0-119.8-53.6-119.8-119.8C1432.2,862.2,1485.8,808.6,1552,808.6z"/>
	</g>
</g>
<g id="XMLID_594_" opacity="0.8">
	<g id="XMLID_47_">
		<path id="XMLID_611_" fill="#FFFFFF" d="M1997.2,230.5c7.7,0,15.2,0.8,22.5,2.2c12.9-54.1,61.5-94.3,119.5-94.3
			c45.3,0,84.8,24.6,106.1,61c14.6-9.3,31.8-14.9,50.4-14.9c35.7,0,66.4,20.2,82.3,49.5c9.1-2.2,18.5-3.5,28.3-3.5
			c66.2,0,119.8,53.6,119.8,119.8c0,66.2-53.6,119.8-119.8,119.8c-18.1,0-35.2-4.1-50.6-11.3c-22.5,29.5-57.9,48.7-97.8,48.7
			c-22.9,0-44.2-6.4-62.6-17.2c-22.1,21.2-52.1,34.3-85.1,34.3c-42.8,0-80.4-21.8-102.4-55c-3.5,0.3-6.9,0.5-10.5,0.5
			c-66.2,0-119.8-53.6-119.8-119.8C1877.4,284.1,1931,230.5,1997.2,230.5z"/>
	</g>
</g>
<g id="XMLID_644_" opacity="0.8">
	<g id="XMLID_44_">
		<path id="XMLID_610_" fill="#FFFFFF" d="M895.5,1149.9c5.8,0,11.5,0.6,17.1,1.7c9.8-41.1,46.8-71.7,90.9-71.7
			c34.5,0,64.5,18.7,80.7,46.4c11.1-7.1,24.2-11.3,38.3-11.3c27.2,0,50.5,15.3,62.6,37.6c6.9-1.7,14.1-2.7,21.5-2.7
			c50.3,0,91.1,40.8,91.1,91.1c0,50.3-40.8,91.1-91.1,91.1c-13.8,0-26.8-3.1-38.5-8.6c-17.1,22.5-44,37-74.4,37
			c-17.4,0-33.6-4.8-47.6-13.1c-16.8,16.1-39.6,26.1-64.7,26.1c-32.5,0-61.2-16.6-77.9-41.8c-2.6,0.2-5.3,0.4-8,0.4
			c-50.3,0-91.1-40.8-91.1-91.1C804.4,1190.7,845.2,1149.9,895.5,1149.9z"/>
	</g>
</g>
<g id="XMLID_532_">
	<path id="XMLID_749_" fill="#A1B266" d="M86.9,1237.5c13.5,0,26.3,3.5,37.3,9.5c7.1-34.7,38.2-60.8,75.4-60.8c42.5,0,77,34,77,75.9
		c0,2.1-0.1,4.2-0.3,6.3c9.4-4,19.8-6.3,30.7-6.3c14.2,0,27.4,3.8,38.8,10.4c13.7-21,37.6-35,64.8-35c5.9,0,11.7,0.7,17.3,1.9
		c0-0.6,0-1.3,0-1.9c0-41.9,34.5-75.9,77-75.9c37.3,0,68.5,26.2,75.5,61.1c9.3-3.9,19.5-6.1,30.2-6.1c24.7,0,46.7,11.5,60.8,29.4
		c14.1-17.9,36.1-29.4,60.8-29.4c8.2,0,16,1.3,23.4,3.6c-0.1-1.2-0.1-2.4-0.1-3.6c0-41.9,34.5-75.9,77-75.9c42.5,0,77,34,77,75.9
		c0,0.7,0,1.3,0,1.9c5.6-1.3,11.3-1.9,17.3-1.9c42.5,0,77,34,77,75.9c0,8.7-1.5,17-4.2,24.8c7.6-2.5,15.7-3.8,24.1-3.8
		c22.2,0,42.2,9.3,56.3,24.1c12-26.6,39-45.1,70.3-45.1c42.5,0,77,34,77,75.9c19.7,0,37.6,7.3,51.2,19.3
		c6.9-34.9,38.1-61.3,75.5-61.3c42.5,0,77,34,77,75.9c17.6,0,33.7,5.8,46.7,15.6c11.1-18.9,30.3-33,53.8-37
		c13.3-2.2,26.5-0.9,38.4,3.2c1.1-35.4,27.3-66.3,64-72.4c41.9-7,81.7,20.8,88.8,62.1c0.4,2.1,0.6,4.2,0.8,6.2
		c8.6-5.5,18.4-9.5,29.2-11.3c14-2.3,27.7-0.8,40,3.8c9.9-23,31.1-40.7,57.9-45.2c5.9-1,11.7-1.3,17.4-0.9c-0.1-0.6-0.3-1.3-0.4-1.9
		c-7.1-41.3,21.1-80.6,63-87.6c36.8-6.2,72,14.5,84.8,47.7c8.5-5.4,18.2-9.2,28.7-11c24.4-4.1,48,3.6,64.9,18.9
		c4.1-7.5,9.4-14.3,15.8-20.1c-12.2-11-20.9-25.9-23.9-43.2c-7.1-41.3,21.1-80.6,63-87.6c27.3-4.6,53.6,5.6,70.7,24.7
		c4.8-1.9,9.9-3.3,15.3-4.2c41.9-7,81.7,20.8,88.8,62.1c0.1,0.6,0.2,1.3,0.3,1.9c5.3-2.2,10.8-3.8,16.7-4.8
		c41.9-7,81.7,20.8,88.8,62.1c1.5,8.6,1.4,17,0.1,25.1c7.1-3.7,14.8-6.4,23.1-7.8c21.9-3.7,43.2,2.2,59.6,14.5
		c7.3-28.2,30.7-50.9,61.7-56.1c21.3-3.6,42,1.9,58.2,13.5c7.6-27.8,30.8-50.1,61.4-55.2c34.5-5.8,67.5,12.1,82.1,41.6v1530.8H9.9
		V1313.4C9.9,1271.5,44.4,1237.5,86.9,1237.5z"/>
</g>
<g id="XMLID_508_">
	<path id="XMLID_748_" fill="#C0D17F" d="M2713.1,1481.7c-13.5,0-26.3,3.5-37.3,9.5c-7.1-34.7-38.2-60.8-75.4-60.8
		c-42.5,0-77,34-77,75.9c0,2.1,0.1,4.2,0.3,6.3c-9.4-4-19.8-6.3-30.7-6.3c-14.2,0-27.4,3.8-38.8,10.4c-13.7-21-37.6-35-64.8-35
		c-5.9,0-11.7,0.7-17.3,1.9c0-0.6,0-1.3,0-1.9c0-41.9-34.5-75.9-77-75.9c-37.3,0-68.5,26.2-75.5,61.1c-9.3-3.9-19.5-6.1-30.2-6.1
		c-24.7,0-46.7,11.5-60.8,29.4c-14.1-17.9-36.1-29.4-60.8-29.4c-8.2,0-16,1.3-23.4,3.6c0.1-1.2,0.1-2.4,0.1-3.6
		c0-41.9-34.5-75.9-77-75.9c-42.5,0-77,34-77,75.9c0,0.7,0,1.3,0,1.9c-5.6-1.3-11.3-1.9-17.3-1.9c-42.5,0-77,34-77,75.9
		c0,8.7,1.5,17,4.2,24.8c-7.6-2.5-15.7-3.8-24.1-3.8c-22.2,0-42.2,9.3-56.3,24.1c-12-26.6-39-45.1-70.3-45.1c-42.5,0-77,34-77,75.9
		c-19.7,0-37.6,7.3-51.2,19.3c-6.9-34.9-38.1-61.3-75.5-61.3c-42.5,0-77,34-77,75.9c-17.6,0-33.7,5.8-46.7,15.6
		c-11.1-18.9-30.3-33-53.8-37c-13.3-2.2-26.5-0.9-38.4,3.2c-1.1-35.4-27.3-66.3-64-72.4c-41.9-7-81.7,20.8-88.8,62.1
		c-0.4,2.1-0.6,4.2-0.8,6.2c-8.6-5.5-18.4-9.5-29.2-11.3c-14-2.3-27.7-0.8-40,3.8c-9.9-23-31.1-40.7-57.9-45.2
		c-5.9-1-11.7-1.3-17.4-0.9c0.1-0.6,0.3-1.3,0.4-1.9c7.1-41.3-21.1-80.6-63-87.6c-36.8-6.2-72,14.5-84.8,47.7
		c-8.5-5.4-18.2-9.2-28.7-11c-24.4-4.1-48,3.6-64.9,18.9c-4.1-7.5-9.4-14.3-15.8-20.1c12.2-11,20.9-25.9,23.9-43.2
		c7.1-41.3-21.1-80.6-63-87.6c-27.3-4.6-53.6,5.6-70.7,24.7c-4.8-1.9-9.9-3.3-15.3-4.2c-41.9-7-81.7,20.8-88.8,62.1
		c-0.1,0.6-0.2,1.3-0.3,1.9c-5.3-2.2-10.8-3.8-16.7-4.8c-41.9-7-81.7,20.8-88.8,62.1c-1.5,8.6-1.4,17-0.1,25.1
		c-7.1-3.7-14.8-6.4-23.1-7.8c-21.9-3.7-43.2,2.2-59.6,14.5c-7.3-28.2-30.7-50.9-61.7-56.1c-21.3-3.6-42,1.9-58.2,13.5
		c-7.6-27.8-30.8-50.1-61.4-55.2c-34.5-5.8-67.5,12.1-82.1,41.6v1286.6h2780.1V1557.6C2790.1,1515.7,2755.6,1481.7,2713.1,1481.7z"
		/>
</g>
<g id="XMLID_51_">
	<g id="XMLID_52_">
		<path id="XMLID_747_" fill="#B9C68D" d="M86.9,1332.4c13.5,0,26.3,3.5,37.3,9.5c7.1-34.7,38.2-60.8,75.4-60.8
			c42.5,0,77,34,77,75.9c0,2.1-0.1,4.2-0.3,6.3c9.4-4,19.8-6.3,30.7-6.3c14.2,0,27.4,3.8,38.8,10.4c13.7-21,37.6-35,64.8-35
			c5.9,0,11.7,0.7,17.3,1.9c0-0.6,0-1.3,0-1.9c0-41.9,34.5-75.9,77-75.9c37.3,0,68.5,26.2,75.5,61.1c9.3-3.9,19.5-6.1,30.2-6.1
			c24.7,0,46.7,11.5,60.8,29.4c14.1-17.9,36.1-29.4,60.8-29.4c8.2,0,16,1.3,23.4,3.6c-0.1-1.2-0.1-2.4-0.1-3.6
			c0-41.9,34.5-75.9,77-75.9c42.5,0,77,34,77,75.9c0,0.7,0,1.3,0,1.9c5.6-1.3,11.3-1.9,17.3-1.9c42.5,0,77,34,77,75.9
			c0,8.7-1.5,17-4.2,24.8c7.6-2.5,15.7-3.8,24.1-3.8c22.2,0,42.2,9.3,56.3,24.1c12-26.6,39-45.1,70.3-45.1c42.5,0,77,34,77,75.9
			c19.7,0,37.6,7.3,51.2,19.3c6.9-34.9,38.1-61.3,75.5-61.3c42.5,0,77,34,77,75.9c17.6,0,33.7,5.8,46.7,15.6
			c11.1-18.9,30.3-33,53.8-37c13.3-2.2,26.5-0.9,38.4,3.2c1.1-35.4,27.3-66.3,64-72.4c41.9-7,81.7,20.8,88.8,62.1
			c0.4,2.1,0.6,4.2,0.8,6.2c8.6-5.5,18.4-9.5,29.2-11.3c14-2.3,27.7-0.8,40,3.8c9.9-23,31.1-40.7,57.9-45.2c5.9-1,11.7-1.3,17.4-0.9
			c-0.1-0.6-0.3-1.3-0.4-1.9c-7.1-41.3,21.1-80.6,63-87.6c36.8-6.2,72,14.5,84.8,47.7c8.5-5.4,18.2-9.2,28.7-11
			c24.4-4.1,48,3.6,64.9,18.9c4.1-7.5,9.4-14.3,15.8-20.1c-12.2-11-20.9-25.9-23.9-43.2c-2.2-12.5-1.1-24.8,2.6-36
			c-16.4-12.3-37.6-18.1-59.5-14.4c-10.6,1.8-20.2,5.6-28.7,11c-12.8-33.2-48-53.9-84.8-47.7c-41.9,7-70.1,46.3-63,87.6
			c0.1,0.6,0.3,1.3,0.4,1.9c-5.7-0.3-11.5,0-17.4,0.9c-26.8,4.5-48,22.2-57.9,45.2c-12.4-4.6-26.1-6.1-40-3.8
			c-10.7,1.8-20.6,5.7-29.2,11.3c-0.2-2.1-0.4-4.2-0.8-6.2c-7.1-41.3-46.9-69.2-88.8-62.1c-36.7,6.2-62.9,37.1-64,72.4
			c-11.9-4.1-25.1-5.5-38.4-3.2c-23.5,3.9-42.7,18-53.8,37c-13-9.8-29.1-15.6-46.7-15.6c0-41.9-34.5-75.9-77-75.9
			c-37.4,0-68.6,26.3-75.5,61.3c-13.6-12-31.6-19.3-51.2-19.3c0-41.9-34.5-75.9-77-75.9c-31.4,0-58.3,18.5-70.3,45.1
			c-14-14.8-34-24.1-56.3-24.1c-8.4,0-16.5,1.4-24.1,3.8c2.7-7.8,4.2-16.1,4.2-24.8c0-41.9-34.5-75.9-77-75.9
			c-5.9,0-11.7,0.7-17.3,1.9c0-0.6,0-1.3,0-1.9c0-41.9-34.5-75.9-77-75.9c-42.5,0-77,34-77,75.9c0,1.2,0,2.4,0.1,3.6
			c-7.4-2.3-15.2-3.6-23.4-3.6c-24.7,0-46.7,11.5-60.8,29.4c-14.1-17.9-36.1-29.4-60.8-29.4c-10.7,0-20.9,2.2-30.2,6.1
			c-7-34.8-38.1-61.1-75.5-61.1c-42.5,0-77,34-77,75.9c0,0.7,0,1.3,0,1.9c-5.6-1.3-11.3-1.9-17.3-1.9c-27.2,0-51.1,14-64.8,35
			c-11.4-6.6-24.7-10.4-38.8-10.4c-10.9,0-21.3,2.2-30.7,6.3c0.2-2.1,0.3-4.2,0.3-6.3c0-41.9-34.5-75.9-77-75.9
			c-37.3,0-68.3,26.1-75.4,60.8c-11.1-6.1-23.8-9.5-37.3-9.5c-42.5,0-77,34-77,75.9v94.9C9.9,1366.4,44.4,1332.4,86.9,1332.4z"/>
	</g>
	<g id="XMLID_53_">
		<path id="XMLID_746_" fill="#B9C68D" d="M2708,1217.6c-30.6,5.1-53.9,27.5-61.4,55.2c-16.2-11.6-36.9-17.1-58.2-13.5
			c-30.9,5.2-54.4,27.9-61.7,56.1c-16.4-12.3-37.7-18.2-59.6-14.5c-8.3,1.4-16.1,4.1-23.1,7.8c1.4-8.1,1.4-16.6-0.1-25.1
			c-7.1-41.3-46.9-69.2-88.8-62.1c-5.9,1-11.4,2.6-16.7,4.8c-0.1-0.6-0.2-1.3-0.3-1.9c-7.1-41.3-46.9-69.2-88.8-62.1
			c-5.3,0.9-10.4,2.3-15.3,4.2c-17-19.1-43.4-29.3-70.7-24.7c-41.9,7-70.1,46.3-63,87.6c2.3,13.2,7.9,25,15.8,34.7
			c11.4-14,27.8-24.1,47.2-27.4c27.3-4.6,53.6,5.6,70.7,24.7c4.8-1.9,9.9-3.3,15.3-4.2c41.9-7,81.7,20.8,88.8,62.1
			c0.1,0.6,0.2,1.3,0.3,1.9c5.3-2.2,10.8-3.8,16.7-4.8c41.9-7,81.7,20.8,88.8,62.1c1.5,8.6,1.4,17,0.1,25.1
			c7.1-3.7,14.8-6.4,23.1-7.8c21.9-3.7,43.2,2.2,59.6,14.5c7.3-28.2,30.7-50.9,61.7-56.1c21.3-3.6,42,1.9,58.2,13.5
			c7.6-27.8,30.8-50.1,61.4-55.2c34.5-5.8,67.5,12.1,82.1,41.6v-94.9C2775.5,1229.7,2742.5,1211.8,2708,1217.6z"/>
	</g>
</g>
<g id="XMLID_48_">
	<path id="XMLID_607_" fill="#637724" d="M2800,2800H0V1313.4c0-47.3,39-85.9,86.9-85.9c10.6,0,21.1,1.9,30.9,5.6
		c12.2-33.6,44.8-56.9,81.8-56.9c45.4,0,82.7,34.5,86.6,78.4c6.8-1.6,13.7-2.5,20.8-2.5c12.4,0,24.6,2.6,35.8,7.6
		c16.4-20.3,41.2-32.2,67.9-32.2c2.6,0,5.2,0.1,7.8,0.4c4.8-42.9,41.7-76.3,86.4-76.3c37.5,0,70.4,23.9,82.3,58.1
		c7.6-2.1,15.4-3.2,23.4-3.2c23,0,44.6,8.8,60.8,24.5c16.2-15.7,37.7-24.5,60.8-24.5c4.6,0,9.3,0.4,13.8,1.1
		c4.5-43.2,41.5-77,86.4-77c44.6,0,81.5,33.4,86.4,76.3c2.6-0.2,5.2-0.4,7.8-0.4c47.9,0,86.9,38.5,86.9,85.9c0,3.9-0.3,7.8-0.8,11.7
		c3.6-0.4,7.2-0.7,10.8-0.7c19.5,0,38.4,6.6,53.6,18.3c15.8-24.2,43.2-39.3,73-39.3c44.7,0,81.6,33.5,86.4,76.4
		c12.9,1.4,25.3,5.6,36.3,12.4c12.7-32.5,44.7-54.8,81-54.8c44.7,0,81.6,33.5,86.4,76.4c12.3,1.3,24,5.1,34.6,11.3
		c13.3-17.5,32.8-29.3,54.9-33c10.4-1.8,21.1-1.6,31.4,0.4c6.3-35.1,34.6-63.5,71-69.7c44.7-7.5,87.4,20.4,98.6,63
		c6.4-2.7,13.1-4.7,20.1-5.9c12.2-2,24.7-1.5,36.5,1.6c12.7-22.8,35.1-38.6,61.4-43c2.6-0.4,5.1-0.7,7.7-0.9
		c-1.1-19.2,4.3-38.1,15.6-54.1c13.4-18.9,33.5-31.5,56.6-35.4c36.9-6.2,73.5,11.9,90.9,43.7c7.1-3.3,14.7-5.7,22.6-7
		c22.7-3.8,45.5,1.3,64.1,14.1c1.4-1.9,2.9-3.7,4.4-5.5c-10.3-11.8-17.1-26-19.8-41.6c-3.9-22.4,1.3-45.1,14.5-63.7
		c13.4-18.9,33.5-31.5,56.6-35.4c27.6-4.6,55.2,3.9,75.1,23c3.6-1.1,7.2-1.9,10.9-2.5c44-7.4,86,19.5,98.1,60.9
		c2.5-0.7,5.1-1.2,7.7-1.7c47.2-7.9,92.2,23.6,100.2,70.2c0.7,3.9,1.1,7.8,1.2,11.7c3.5-1,7-1.9,10.6-2.5c19.2-3.2,39,0.1,55.9,9.2
		c11.5-26.5,36-45.9,65.3-50.8c18.9-3.2,37.9-0.2,54.6,8.5c11.6-26.2,36-45.3,65-50.2c18.9-3.2,37.8-0.2,54.7,8.5
		c16.4,8.5,29.9,22.1,37.9,38.5l1,2.1V2800z M19.9,2780.1h2760.3V1261.6c-13.4-25-42.1-39-70.5-34.2c-25.7,4.3-46.7,23.2-53.5,48
		l-3.8,13.8l-11.6-8.4c-14.8-10.6-32.8-14.8-50.8-11.8c-26.1,4.4-47.2,23.5-53.7,48.8l-3.7,14.4l-11.9-8.9
		c-15-11.3-33.4-15.7-52-12.6c-7.1,1.2-13.8,3.5-20.2,6.8l-17.7,9.2l3.3-19.7c1.2-7.2,1.2-14.6,0-21.8c-6.2-35.9-40.9-60.1-77.4-54
		c-5,0.8-9.9,2.2-14.6,4.2l-11.8,4.8l-1.9-13.3c0-0.3-0.1-0.6-0.1-0.9c-6.2-35.9-40.9-60.1-77.4-54c-4.6,0.8-9,2-13.3,3.7l-6.4,2.5
		l-4.6-5.1c-15.5-17.3-38.5-25.4-61.6-21.5c-17.8,3-33.3,12.7-43.7,27.3c-10.1,14.3-14.1,31.6-11.1,48.8
		c2.5,14.6,9.7,27.6,20.8,37.6l8.1,7.4l-8.1,7.4c-5.6,5-10.2,10.9-13.8,17.5l-6,11.1l-9.4-8.4c-15.4-13.9-36-19.9-56.6-16.5
		c-9,1.5-17.4,4.7-25,9.6l-10.2,6.5l-4.4-11.3c-11.3-29.3-42.4-46.8-73.9-41.5c-17.8,3-33.3,12.7-43.7,27.3
		c-10.1,14.3-14.1,31.6-11.1,48.8c0.1,0.3,0.1,0.6,0.2,0.9l0.1,0.7l2.5,12.6l-12.8-0.7c-5.1-0.3-10.2,0-15.2,0.8
		c-22.6,3.8-41.5,18.5-50.5,39.4l-3.7,8.7l-8.9-3.3c-11.1-4.1-23.2-5.3-34.9-3.3c-9.1,1.5-17.7,4.8-25.4,9.8l-13.8,8.9l-1.4-16.4
		c-0.2-2-0.4-3.8-0.7-5.4c-6.2-35.9-40.9-60.1-77.4-54c-31.3,5.3-54.8,31.7-55.7,63l-0.4,13.5l-12.8-4.4
		c-10.7-3.7-22.3-4.7-33.5-2.8c-19.8,3.3-36.8,15-46.9,32.2l-5.6,9.6l-8.9-6.7c-11.8-8.9-25.9-13.6-40.7-13.6h-9.9v-9.9
		c0-36.4-30.1-66-67-66c-32,0-59.6,22.4-65.8,53.3l-3.4,16.9l-12.9-11.4c-12.3-10.8-28.2-16.8-44.7-16.8h-9.9v-9.9
		c0-36.4-30.1-66-67-66c-26.5,0-50.5,15.4-61.3,39.2l-6.1,13.5l-10.2-10.8c-12.8-13.6-30.3-21-49-21c-7.2,0-14.2,1.1-21.1,3.3
		l-19.1,6.2l6.6-18.9c2.4-6.9,3.7-14.2,3.7-21.5c0-36.4-30.1-66-67-66c-5,0-10.1,0.6-15.1,1.7l-12.5,2.8l0.4-13.5c0-0.3,0-0.6,0-1
		c0-36.4-30.1-66-67-66c-37,0-67,29.6-67,66c0,0.9,0,2,0.1,3.1l0.7,14.2l-13.6-4.3c-6.6-2.1-13.5-3.1-20.4-3.1
		c-20.8,0-40.1,9.3-53,25.6l-7.8,9.9l-7.8-9.9c-12.8-16.3-32.1-25.6-53-25.6c-9.1,0-18,1.8-26.3,5.3l-11.2,4.7l-2.4-11.9
		c-6.2-30.8-33.8-53.1-65.7-53.1c-37,0-67,29.6-67,66c0,0.3,0,0.6,0,1l0,0.7l0.3,12.8l-12.5-2.8c-5-1.1-10.1-1.7-15.1-1.7
		c-23,0-44.1,11.4-56.5,30.5l-5.1,7.9l-8.2-4.7c-10.2-5.9-21.9-9-33.9-9c-9.3,0-18.3,1.8-26.7,5.5l-15.2,6.5l1.4-16.5
		c0.2-2,0.2-3.8,0.2-5.5c0-36.4-30.1-66-67-66c-31.8,0-59.4,22.2-65.7,52.9l-2.7,13.2l-11.8-6.5c-9.9-5.4-21.2-8.3-32.5-8.3
		c-37,0-67,29.6-67,66V2780.1z"/>
</g>
<g id="XMLID_62_">
	<g id="XMLID_63_">
		<path id="XMLID_745_" fill="#D0DCA1" d="M2713.1,1481.7c-13.5,0-26.3,3.5-37.3,9.5c-7.1-34.7-38.2-60.8-75.4-60.8
			c-42.5,0-77,34-77,75.9c0,2.1,0.1,4.2,0.3,6.3c-9.4-4-19.8-6.3-30.7-6.3c-14.2,0-27.4,3.8-38.8,10.4c-13.7-21-37.6-35-64.8-35
			c-5.9,0-11.7,0.7-17.3,1.9c0-0.6,0-1.3,0-1.9c0-41.9-34.5-75.9-77-75.9c-37.3,0-68.5,26.2-75.5,61.1c-9.3-3.9-19.5-6.1-30.2-6.1
			c-24.7,0-46.7,11.5-60.8,29.4c-14.1-17.9-36.1-29.4-60.8-29.4c-8.2,0-16,1.3-23.4,3.6c0.1-1.2,0.1-2.4,0.1-3.6
			c0-41.9-34.5-75.9-77-75.9c-42.5,0-77,34-77,75.9c0,0.7,0,1.3,0,1.9c-5.6-1.3-11.3-1.9-17.3-1.9c-42.5,0-77,34-77,75.9
			c0,8.7,1.5,17,4.2,24.8c-7.6-2.5-15.7-3.8-24.1-3.8c-22.2,0-42.2,9.3-56.3,24.1c-12-26.6-39-45.1-70.3-45.1c-42.5,0-77,34-77,75.9
			c-19.7,0-37.6,7.3-51.2,19.3c-6.9-34.9-38.1-61.3-75.5-61.3c-42.5,0-77,34-77,75.9c-17.6,0-33.7,5.8-46.7,15.6
			c-11.1-18.9-30.3-33-53.8-37c-13.3-2.2-26.5-0.9-38.4,3.2c-1.1-35.4-27.3-66.3-64-72.4c-41.9-7-81.7,20.8-88.8,62.1
			c-0.4,2.1-0.6,4.2-0.8,6.2c-8.6-5.5-18.4-9.5-29.2-11.3c-14-2.3-27.7-0.8-40,3.8c-9.9-23-31.1-40.7-57.9-45.2
			c-5.9-1-11.7-1.3-17.4-0.9c0.1-0.6,0.3-1.3,0.4-1.9c7.1-41.3-21.1-80.6-63-87.6c-36.8-6.2-72,14.5-84.8,47.7
			c-8.5-5.4-18.2-9.2-28.7-11c-21.9-3.7-43.1,2.2-59.5,14.4c3.7,11.3,4.8,23.6,2.6,36c-3,17.3-11.7,32.2-23.9,43.2
			c6.4,5.8,11.7,12.6,15.8,20.1c16.9-15.3,40.5-23,64.9-18.9c10.6,1.8,20.2,5.6,28.7,11c12.8-33.2,48-53.9,84.8-47.7
			c41.9,7,70.1,46.3,63,87.6c-0.1,0.6-0.3,1.3-0.4,1.9c5.7-0.3,11.5,0,17.4,0.9c26.8,4.5,48,22.2,57.9,45.2
			c12.4-4.6,26.1-6.1,40-3.8c10.7,1.8,20.6,5.7,29.2,11.3c0.2-2.1,0.4-4.2,0.8-6.2c7.1-41.3,46.9-69.2,88.8-62.1
			c36.7,6.2,62.9,37.1,64,72.4c11.9-4.1,25.1-5.5,38.4-3.2c23.5,3.9,42.7,18,53.8,37c13-9.8,29.1-15.6,46.7-15.6
			c0-41.9,34.5-75.9,77-75.9c37.4,0,68.6,26.3,75.5,61.3c13.6-12,31.6-19.3,51.2-19.3c0-41.9,34.5-75.9,77-75.9
			c31.4,0,58.3,18.5,70.3,45.1c14-14.8,34-24.1,56.3-24.1c8.4,0,16.5,1.4,24.1,3.8c-2.7-7.8-4.2-16.1-4.2-24.8
			c0-41.9,34.5-75.9,77-75.9c5.9,0,11.7,0.7,17.3,1.9c0-0.6,0-1.3,0-1.9c0-41.9,34.5-75.9,77-75.9c42.5,0,77,34,77,75.9
			c0,1.2,0,2.4-0.1,3.6c7.4-2.3,15.2-3.6,23.4-3.6c24.7,0,46.7,11.5,60.8,29.4c14.1-17.9,36.1-29.4,60.8-29.4
			c10.7,0,20.9,2.2,30.2,6.1c7-34.8,38.1-61.1,75.5-61.1c42.5,0,77,34,77,75.9c0,0.7,0,1.3,0,1.9c5.6-1.3,11.3-1.9,17.3-1.9
			c27.2,0,51.1,14,64.8,35c11.4-6.6,24.7-10.4,38.8-10.4c10.9,0,21.3,2.2,30.7,6.3c-0.2-2.1-0.3-4.2-0.3-6.3
			c0-41.9,34.5-75.9,77-75.9c37.3,0,68.3,26.1,75.4,60.8c11.1-6.1,23.8-9.5,37.3-9.5c42.5,0,77,34,77,75.9v-94.9
			C2790.1,1515.7,2755.6,1481.7,2713.1,1481.7z"/>
	</g>
	<g id="XMLID_64_">
		<path id="XMLID_744_" fill="#D0DCA1" d="M92,1556.7c30.6,5.1,53.9,27.5,61.4,55.2c16.2-11.6,36.9-17.1,58.2-13.5
			c30.9,5.2,54.4,27.9,61.7,56.1c16.4-12.3,37.7-18.2,59.6-14.5c8.3,1.4,16.1,4.1,23.1,7.8c-1.4-8.1-1.4-16.6,0.1-25.1
			c7.1-41.3,46.9-69.2,88.8-62.1c5.9,1,11.4,2.6,16.7,4.8c0.1-0.6,0.2-1.3,0.3-1.9c7.1-41.3,46.9-69.2,88.8-62.1
			c5.3,0.9,10.4,2.3,15.3,4.2c17-19.1,43.4-29.3,70.7-24.7c19.4,3.2,35.8,13.4,47.2,27.4c7.9-9.7,13.5-21.5,15.8-34.7
			c7.1-41.3-21.1-80.6-63-87.6c-27.3-4.6-53.6,5.6-70.7,24.7c-4.8-1.9-9.9-3.3-15.3-4.2c-41.9-7-81.7,20.8-88.8,62.1
			c-0.1,0.6-0.2,1.3-0.3,1.9c-5.3-2.2-10.8-3.8-16.7-4.8c-41.9-7-81.7,20.8-88.8,62.1c-1.5,8.6-1.4,17-0.1,25.1
			c-7.1-3.7-14.8-6.4-23.1-7.8c-21.9-3.7-43.2,2.2-59.6,14.5c-7.3-28.2-30.7-50.9-61.7-56.1c-21.3-3.6-42,1.9-58.2,13.5
			c-7.6-27.8-30.8-50.1-61.4-55.2c-34.5-5.8-67.5,12.1-82.1,41.6v94.9C24.5,1568.8,57.5,1551,92,1556.7z"/>
	</g>
</g>
<g id="XMLID_49_">
	<path id="XMLID_604_" fill="#779221" d="M2800,2800H0V1501.1l1-2.1c8.1-16.4,21.5-30,37.9-38.5c16.9-8.7,35.8-11.7,54.7-8.5
		c29,4.9,53.4,24,65,50.2c16.7-8.6,35.7-11.6,54.6-8.5c29.3,4.9,53.8,24.3,65.3,50.8c17-9.1,36.8-12.4,55.9-9.2
		c3.6,0.6,7.1,1.4,10.6,2.5c0.1-3.9,0.5-7.8,1.2-11.7c8-46.7,53-78.1,100.2-70.2c2.6,0.4,5.1,1,7.7,1.7c12-41.5,54.1-68.3,98.1-60.9
		c3.7,0.6,7.3,1.5,10.9,2.5c19.9-19.1,47.5-27.7,75.1-23c23.1,3.9,43.2,16.4,56.6,35.4c13.2,18.6,18.4,41.3,14.5,63.7
		c-2.7,15.6-9.5,29.8-19.8,41.6c1.5,1.8,3,3.6,4.4,5.5c18.6-12.8,41.4-17.9,64.1-14.1c7.9,1.3,15.4,3.7,22.6,7
		c17.5-31.8,54-49.9,90.9-43.7c23.1,3.9,43.2,16.4,56.6,35.4c11.3,16,16.7,34.9,15.6,54.1c2.6,0.2,5.2,0.5,7.7,0.9
		c26.3,4.4,48.7,20.2,61.4,43c11.9-3.1,24.4-3.6,36.5-1.6c7,1.2,13.7,3.1,20.1,5.9c11.2-42.6,53.9-70.5,98.6-63
		c36.5,6.1,64.7,34.5,71,69.7c10.3-2,21-2.2,31.4-0.4c22.1,3.7,41.6,15.6,54.9,33c10.6-6.2,22.3-10,34.6-11.3
		c4.8-42.9,41.7-76.4,86.4-76.4c36.3,0,68.3,22.3,81,54.8c11-6.7,23.4-11,36.3-12.4c4.8-42.9,41.7-76.4,86.4-76.4
		c29.7,0,57.1,15.1,73,39.3c15.2-11.8,34.1-18.3,53.6-18.3c3.6,0,7.2,0.2,10.8,0.7c-0.5-3.9-0.8-7.8-0.8-11.7
		c0-47.3,39-85.9,86.9-85.9c2.6,0,5.2,0.1,7.8,0.4c4.8-42.9,41.7-76.3,86.4-76.3c44.9,0,81.9,33.8,86.4,77c4.6-0.7,9.2-1.1,13.8-1.1
		c23,0,44.6,8.8,60.8,24.5c16.2-15.7,37.7-24.5,60.8-24.5c8,0,15.8,1.1,23.4,3.2c11.8-34.3,44.8-58.1,82.3-58.1
		c44.6,0,81.5,33.4,86.4,76.3c2.6-0.2,5.2-0.4,7.8-0.4c26.7,0,51.4,11.9,67.9,32.2c11.2-5,23.4-7.6,35.8-7.6c7.1,0,14,0.8,20.8,2.5
		c3.8-43.9,41.2-78.4,86.6-78.4c37,0,69.6,23.3,81.8,56.9c9.8-3.7,20.3-5.6,30.9-5.6c47.9,0,86.9,38.5,86.9,85.9V2800z M19.9,2780.1
		h2760.3V1557.6c0-36.4-30.1-66-67-66c-11.4,0-22.6,2.9-32.5,8.3l-11.8,6.5l-2.7-13.2c-6.3-30.6-33.9-52.9-65.7-52.9
		c-37,0-67,29.6-67,66c0,1.7,0.1,3.4,0.2,5.5l1.4,16.5l-15.2-6.5c-8.5-3.6-17.5-5.5-26.7-5.5c-11.9,0-23.6,3.1-33.9,9l-8.2,4.7
		l-5.1-7.9c-12.4-19.1-33.5-30.5-56.5-30.5c-5,0-10.1,0.6-15.1,1.7l-12.5,2.8l0.4-13.5c0-0.3,0-0.6,0-1c0-36.4-30.1-66-67-66
		c-31.9,0-59.5,22.3-65.7,53.1l-2.4,11.9l-11.2-4.7c-8.3-3.5-17.2-5.3-26.3-5.3c-20.8,0-40.1,9.3-53,25.6l-7.8,9.9l-7.8-9.9
		c-12.8-16.3-32.1-25.6-53-25.6c-6.9,0-13.8,1.1-20.4,3.1l-13.6,4.3l0.7-14.2c0.1-1.1,0.1-2.2,0.1-3.1c0-36.4-30.1-66-67-66
		s-67,29.6-67,66c0,0.3,0,0.6,0,1l0,0.7l0.3,12.8l-12.5-2.8c-5-1.1-10-1.7-15.1-1.7c-37,0-67,29.6-67,66c0,7.3,1.2,14.6,3.7,21.5
		l6.6,18.9l-19.1-6.2c-6.8-2.2-13.9-3.3-21.1-3.3c-18.8,0-36.2,7.5-49,21l-10.2,10.8l-6.1-13.5c-10.8-23.8-34.8-39.2-61.3-39.2
		c-37,0-67,29.6-67,66v9.9h-9.9c-16.5,0-32.4,6-44.7,16.8l-12.9,11.4l-3.4-16.9c-6.1-30.9-33.8-53.3-65.8-53.3c-37,0-67,29.6-67,66
		v9.9h-9.9c-14.9,0-28.9,4.7-40.7,13.6l-8.9,6.7l-5.6-9.6c-10-17.1-27.1-28.9-46.9-32.2c-11.2-1.9-22.8-0.9-33.5,2.8l-12.8,4.4
		l-0.4-13.5c-1-31.2-24.4-57.7-55.7-63c-36.5-6.1-71.2,18.1-77.4,54c-0.3,1.6-0.5,3.4-0.7,5.4l-1.4,16.4l-13.8-8.9
		c-7.7-5-16.3-8.3-25.4-9.8c-11.7-2-23.8-0.8-34.9,3.3l-8.9,3.3l-3.7-8.7c-9-20.9-27.8-35.6-50.5-39.4c-5-0.8-10-1.1-15.2-0.8
		l-12.8,0.7l2.6-13.3c0.1-0.3,0.1-0.6,0.2-1c3-17.2-1-34.5-11.1-48.8c-10.4-14.6-25.9-24.3-43.7-27.3c-31.5-5.3-62.5,12.2-73.9,41.5
		l-4.4,11.3l-10.2-6.5c-7.6-4.8-16-8.1-25-9.6c-20.6-3.5-41.2,2.6-56.6,16.5l-9.4,8.4l-6-11.1c-3.6-6.6-8.2-12.5-13.8-17.5l-8.1-7.4
		l8.1-7.4c11.1-10,18.2-23,20.8-37.6c3-17.2-1-34.5-11.1-48.8c-10.4-14.6-25.9-24.3-43.7-27.3c-23.1-3.9-46.1,4.2-61.6,21.5
		l-4.6,5.1l-6.4-2.5c-4.3-1.7-8.8-2.9-13.3-3.6c-36.5-6.1-71.2,18.1-77.4,54c-0.1,0.3-0.1,0.6-0.1,1l-0.1,0.7l-1.8,12.6l-11.8-4.8
		c-4.7-1.9-9.6-3.3-14.6-4.2c-36.5-6.1-71.2,18.1-77.4,54c-1.2,7.2-1.3,14.6,0,21.8l3.3,19.7l-17.7-9.3c-6.3-3.3-13.1-5.6-20.2-6.8
		c-18.5-3.1-37,1.4-52,12.6l-11.9,8.9l-3.7-14.4c-6.5-25.3-27.6-44.4-53.7-48.8c-18-3-36,1.2-50.8,11.8l-11.6,8.4l-3.8-13.8
		c-6.8-24.9-27.8-43.7-53.5-48c-28.4-4.8-57.1,9.2-70.5,34.2V2780.1z"/>
</g>
<g id="XMLID_181_">
	<path id="XMLID_743_" fill="#ECCA84" d="M1400,388.4c-11,0-19.9,8.9-19.9,19.9v322.5c0,11,8.9,19.9,19.9,19.9s19.9-8.9,19.9-19.9
		V408.3C1419.9,397.3,1411,388.4,1400,388.4z"/>
</g>
<g id="XMLID_208_">
	<path id="XMLID_742_" fill="#F5E1BB" d="M1419.9,730.8V408.3c0-11-8.9-19.9-19.9-19.9v362.2C1411,750.6,1419.9,741.7,1419.9,730.8z
		"/>
</g>
<g id="XMLID_236_">
	<path id="XMLID_495_" fill="#56370B" d="M1400,760.6c-16.4,0-29.8-13.4-29.8-29.8V408.3c0-16.4,13.4-29.8,29.8-29.8
		s29.8,13.4,29.8,29.8v322.5C1429.8,747.2,1416.4,760.6,1400,760.6z M1400,398.3c-5.5,0-9.9,4.5-9.9,9.9v322.5
		c0,5.5,4.5,9.9,9.9,9.9s9.9-4.5,9.9-9.9V408.3C1409.9,402.8,1405.5,398.3,1400,398.3z"/>
</g>
<g id="XMLID_30_">
	<rect id="XMLID_741_" x="9.9" y="1814.6" fill="#926828" width="2780.1" height="120.6"/>
</g>
<g id="XMLID_134_">
	<rect id="XMLID_740_" x="9.9" y="1874.9" fill="#AD8A58" width="2780.1" height="60.3"/>
</g>
<g id="XMLID_164_">
	<path id="XMLID_436_" fill="#56370B" d="M2800,1945.1H0v-140.4h2800V1945.1z M19.9,1925.2h2760.3v-100.7H19.9V1925.2z"/>
</g>
<g id="XMLID_369_">
	<rect id="XMLID_739_" x="9.9" y="1935.2" fill="#C29F66" width="2780.1" height="583.7"/>
</g>
<g id="XMLID_274_">
	<rect id="XMLID_738_" x="9.9" y="2227" fill="#D8C09A" width="2780.1" height="291.9"/>
</g>
<g id="XMLID_273_">
	<rect id="XMLID_435_" x="2572.6" y="2055.3" fill="#56370B" width="19.9" height="463.6"/>
</g>
<g id="XMLID_272_">
	<rect id="XMLID_434_" x="2662" y="2456.3" fill="#56370B" width="19.9" height="62.5"/>
</g>
<g id="XMLID_271_">
	<rect id="XMLID_433_" x="2719.6" y="2331.3" fill="#56370B" width="19.9" height="187.6"/>
</g>
<g id="XMLID_275_">
	<path id="XMLID_417_" fill="#56370B" d="M2800,2528.8H0v-603.6h2800V2528.8z M19.9,2509h2760.3v-563.9H19.9V2509z"/>
</g>
<g id="XMLID_257_">
	<rect id="XMLID_234_" x="207.5" y="2055.3" fill="#56370B" width="19.9" height="463.6"/>
</g>
<g id="XMLID_263_">
	<rect id="XMLID_233_" x="118.2" y="2456.3" fill="#56370B" width="19.9" height="62.5"/>
</g>
<g id="XMLID_259_">
	<rect id="XMLID_232_" x="60.6" y="2331.3" fill="#56370B" width="19.9" height="187.6"/>
</g>
<g id="XMLID_774_">
	<rect id="XMLID_737_" x="9.9" y="2518.9" fill="#C0D17F" width="2780.1" height="271.2"/>
</g>
<g id="XMLID_35_">
	<rect id="XMLID_736_" x="9.9" y="2654.5" fill="#D0DCA1" width="2780.1" height="135.6"/>
</g>
<g id="XMLID_32_">
	<rect id="XMLID_735_" x="455" y="415.7" fill="#D4B489" width="1890" height="83.4"/>
</g>
<g id="XMLID_67_">
	<rect id="XMLID_734_" x="455" y="457.4" fill="#E8D5BC" width="1890" height="41.7"/>
</g>
<g id="XMLID_50_">
	<path id="XMLID_229_" fill="#56370B" d="M2354.9,509H445.1V405.8h1909.8V509z M464.9,489.2h1870.1v-63.5H464.9V489.2z"/>
</g>
<g id="XMLID_317_">
	<rect id="XMLID_733_" x="587.3" y="1935.2" fill="#D4B489" width="1625.3" height="83.4"/>
</g>
<g id="XMLID_316_">
	<rect id="XMLID_732_" x="544.4" y="2018.6" fill="#926828" width="1711.1" height="83.4"/>
</g>
<g id="XMLID_315_">
	<rect id="XMLID_731_" x="501.5" y="2102" fill="#D4B489" width="1796.9" height="83.4"/>
</g>
<g id="XMLID_314_">
	<rect id="XMLID_730_" x="458.6" y="2185.3" fill="#926828" width="1882.7" height="83.4"/>
</g>
<g id="XMLID_313_">
	<rect id="XMLID_729_" x="415.7" y="2268.7" fill="#D4B489" width="1968.5" height="83.4"/>
</g>
<g id="XMLID_312_">
	<rect id="XMLID_149_" x="372.8" y="2352.1" fill="#926828" width="2054.3" height="83.4"/>
</g>
<g id="XMLID_33_">
	<rect id="XMLID_148_" x="587.3" y="499.1" fill="#C29F66" width="83.4" height="1315.5"/>
</g>
<g id="XMLID_65_">
	<rect id="XMLID_146_" x="587.3" y="499.1" fill="#D8C09A" width="41.7" height="1315.5"/>
</g>
<g id="XMLID_66_">
	<path id="XMLID_226_" fill="#56370B" d="M680.7,1824.5H577.4V489.2h103.2V1824.5z M597.3,1804.7h63.5V509h-63.5V1804.7z"/>
</g>
<g id="XMLID_31_">
	<g id="XMLID_37_">
		<polygon id="XMLID_145_" fill="#926828" points="962.8,499.1 844.9,499.1 670.7,673.3 670.7,791.2 		"/>
	</g>
</g>
<g id="XMLID_75_">
	<polygon id="XMLID_144_" fill="#AD8A58" points="902.1,499.1 670.7,730.5 670.7,791.2 962.8,499.1 	"/>
</g>
<g id="XMLID_70_">
	<g id="XMLID_71_">
		<path id="XMLID_223_" fill="#56370B" d="M660.8,815.2v-146l180-180h146L660.8,815.2z M680.7,677.4v89.8L938.9,509H849L680.7,677.4
			z"/>
	</g>
</g>
<g id="XMLID_77_">
	<g id="XMLID_78_">
		<polygon id="XMLID_143_" fill="#926828" points="1837.2,499.1 1955.1,499.1 2129.3,673.3 2129.3,791.2 		"/>
	</g>
</g>
<g id="XMLID_76_">
	<polygon id="XMLID_142_" fill="#AD8A58" points="1897.9,499.1 2129.3,730.5 2129.3,791.2 1837.2,499.1 	"/>
</g>
<g id="XMLID_73_">
	<g id="XMLID_74_">
		<path id="XMLID_220_" fill="#56370B" d="M2139.2,815.2l-326-326h146l180,180V815.2z M1861.1,509l258.2,258.2v-89.8L1951,509
			H1861.1z"/>
	</g>
</g>
<g id="XMLID_38_">
	<rect id="XMLID_141_" x="2129.3" y="499.1" fill="#C29F66" width="83.4" height="1315.5"/>
</g>
<g id="XMLID_69_">
	<rect id="XMLID_140_" x="2171" y="499.1" fill="#D8C09A" width="41.7" height="1315.5"/>
</g>
<g id="XMLID_68_">
	<path id="XMLID_217_" fill="#56370B" d="M2222.6,1824.5h-103.2V489.2h103.2V1824.5z M2139.2,1804.7h63.5V509h-63.5V1804.7z"/>
</g>
<g id="XMLID_115_">
	<g id="XMLID_176_">
		<path id="XMLID_139_" fill="#ECCA84" d="M1340.4,388.4c-11,0-19.9,8.9-19.9,19.9v98.3c0,11,8.9,19.9,19.9,19.9s19.9-8.9,19.9-19.9
			v-98.3C1360.3,397.3,1351.4,388.4,1340.4,388.4z"/>
	</g>
	<g id="XMLID_173_">
		<path id="XMLID_138_" fill="#ECCA84" d="M1380.1,388.4c-11,0-19.9,8.9-19.9,19.9v98.3c0,11,8.9,19.9,19.9,19.9s19.9-8.9,19.9-19.9
			v-98.3C1400,397.3,1391.1,388.4,1380.1,388.4z"/>
	</g>
	<g id="XMLID_174_">
		<path id="XMLID_137_" fill="#ECCA84" d="M1419.9,388.4c-11,0-19.9,8.9-19.9,19.9v98.3c0,11,8.9,19.9,19.9,19.9s19.9-8.9,19.9-19.9
			v-98.3C1439.7,397.3,1430.8,388.4,1419.9,388.4z"/>
	</g>
	<g id="XMLID_175_">
		<path id="XMLID_136_" fill="#ECCA84" d="M1459.6,388.4c-11,0-19.9,8.9-19.9,19.9v98.3c0,11,8.9,19.9,19.9,19.9s19.9-8.9,19.9-19.9
			v-98.3C1479.4,397.3,1470.5,388.4,1459.6,388.4z"/>
	</g>
</g>
<g id="XMLID_178_">
	<path id="XMLID_133_" fill="#926828" d="M1413.5,689.4h-27c-9,0-16.3,7.3-16.3,16.3v28.6c0,9,7.3,16.3,16.3,16.3h27
		c9,0,16.3-7.3,16.3-16.3v-28.6C1429.8,696.7,1422.5,689.4,1413.5,689.4z"/>
</g>
<g id="XMLID_206_">
	<path id="XMLID_132_" fill="#AD8A58" d="M1413.6,689.4H1400v61.2h13.6c8.9,0,16.2-7.3,16.2-16.2v-28.8
		C1429.8,696.7,1422.5,689.4,1413.6,689.4z"/>
</g>
<g id="XMLID_235_">
	<path id="XMLID_214_" fill="#56370B" d="M1413.6,760.6h-27.2c-14.4,0-26.1-11.7-26.1-26.1v-28.8c0-14.4,11.7-26.1,26.1-26.1h27.2
		c14.4,0,26.1,11.7,26.1,26.1v28.8C1439.7,748.8,1428,760.6,1413.6,760.6z M1386.4,699.4c-3.5,0-6.3,2.8-6.3,6.3v28.8
		c0,3.5,2.8,6.3,6.3,6.3h27.2c3.5,0,6.3-2.8,6.3-6.3v-28.8c0-3.5-2.8-6.3-6.3-6.3H1386.4z"/>
</g>
<g id="XMLID_177_">
	<g id="XMLID_179_">
		<path id="XMLID_777_" fill="#ECCA84" d="M1314.7,936.8c-47.1-47.1-47.1-123.6,0-170.7c47.1-47.1,123.6-47.1,170.7,0
			c47.1,47.1,47.1,123.6,0,170.7C1438.3,983.9,1361.7,983.9,1314.7,936.8z M1457.3,794.2c-31.6-31.6-82.9-31.6-114.5,0
			c-31.6,31.6-31.6,82.9,0,114.5c31.6,31.6,82.9,31.6,114.5,0C1488.8,877.1,1488.8,825.8,1457.3,794.2z"/>
	</g>
</g>
<g id="XMLID_135_">
	<path id="XMLID_211_" fill="#779221" d="M2800,2800H0v-291h2800V2800z M19.9,2780.1h2760.3v-251.3H19.9V2780.1z"/>
</g>
<g id="XMLID_311_">
	<rect id="XMLID_131_" x="329.9" y="2435.5" fill="#D4B489" width="2140.1" height="83.4"/>
</g>
<g id="XMLID_244_">
	<rect id="XMLID_130_" x="587.3" y="1976.9" fill="#E8D5BC" width="1625.3" height="41.7"/>
</g>
<g id="XMLID_243_">
	<rect id="XMLID_129_" x="544.4" y="2060.3" fill="#AD8A58" width="1711.1" height="41.7"/>
</g>
<g id="XMLID_242_">
	<rect id="XMLID_128_" x="501.5" y="2143.6" fill="#E8D5BC" width="1796.9" height="41.7"/>
</g>
<g id="XMLID_241_">
	<rect id="XMLID_127_" x="458.6" y="2227" fill="#AD8A58" width="1882.7" height="41.7"/>
</g>
<g id="XMLID_240_">
	<rect id="XMLID_126_" x="415.7" y="2310.4" fill="#E8D5BC" width="1968.5" height="41.7"/>
</g>
<g id="XMLID_239_">
	<rect id="XMLID_125_" x="372.8" y="2393.8" fill="#AD8A58" width="2054.3" height="41.7"/>
</g>
<g id="XMLID_238_">
	<rect id="XMLID_124_" x="329.9" y="2477.2" fill="#E8D5BC" width="2140.1" height="41.7"/>
</g>
<g id="XMLID_200_">
	<path id="XMLID_123_" fill="#F5E1BB" d="M1400,506.6c0,11,8.9,19.9,19.9,19.9s19.9-8.9,19.9-19.9c0,11,8.9,19.9,19.9,19.9
		s19.9-8.9,19.9-19.9v-98.3c0-8.2-5-15.2-12-18.2l-134.8,134.8c2.4,1,5,1.6,7.8,1.6c11,0,19.9-8.9,19.9-19.9
		c0,11,8.9,19.9,19.9,19.9S1400,517.5,1400,506.6z"/>
</g>
<g id="XMLID_165_">
	<g id="XMLID_204_">
		<path id="XMLID_199_" fill="#56370B" d="M1340.4,536.3c-16.4,0-29.8-13.4-29.8-29.8v-98.3c0-16.4,13.4-29.8,29.8-29.8
			s29.8,13.4,29.8,29.8v98.3C1370.2,523,1356.9,536.3,1340.4,536.3z M1340.4,398.3c-5.5,0-9.9,4.5-9.9,9.9v98.3
			c0,5.5,4.5,9.9,9.9,9.9s9.9-4.5,9.9-9.9v-98.3C1350.4,402.8,1345.9,398.3,1340.4,398.3z"/>
	</g>
	<g id="XMLID_203_">
		<path id="XMLID_196_" fill="#56370B" d="M1380.1,536.3c-16.4,0-29.8-13.4-29.8-29.8v-98.3c0-16.4,13.4-29.8,29.8-29.8
			s29.8,13.4,29.8,29.8v98.3C1409.9,523,1396.6,536.3,1380.1,536.3z M1380.1,398.3c-5.5,0-9.9,4.5-9.9,9.9v98.3
			c0,5.5,4.5,9.9,9.9,9.9s9.9-4.5,9.9-9.9v-98.3C1390.1,402.8,1385.6,398.3,1380.1,398.3z"/>
	</g>
	<g id="XMLID_202_">
		<path id="XMLID_193_" fill="#56370B" d="M1419.9,536.3c-16.4,0-29.8-13.4-29.8-29.8v-98.3c0-16.4,13.4-29.8,29.8-29.8
			s29.8,13.4,29.8,29.8v98.3C1449.6,523,1436.3,536.3,1419.9,536.3z M1419.9,398.3c-5.5,0-9.9,4.5-9.9,9.9v98.3
			c0,5.5,4.5,9.9,9.9,9.9s9.9-4.5,9.9-9.9v-98.3C1429.8,402.8,1425.3,398.3,1419.9,398.3z"/>
	</g>
	<g id="XMLID_201_">
		<path id="XMLID_185_" fill="#56370B" d="M1459.6,536.3c-16.4,0-29.8-13.4-29.8-29.8v-98.3c0-16.4,13.4-29.8,29.8-29.8
			s29.8,13.4,29.8,29.8v98.3C1489.4,523,1476,536.3,1459.6,536.3z M1459.6,398.3c-5.5,0-9.9,4.5-9.9,9.9v98.3c0,5.5,4.5,9.9,9.9,9.9
			s9.9-4.5,9.9-9.9v-98.3C1469.5,402.8,1465,398.3,1459.6,398.3z"/>
	</g>
</g>
<g id="XMLID_237_">
	<path id="XMLID_119_" fill="#F5E1BB" d="M1456.7,908.2c-31.6,31.6-82.9,31.6-114.5,0l-28.1,28.1c47.1,47.1,123.6,47.1,170.7,0
		c47.1-47.1,47.1-123.6,0-170.7l-28.1,28.1C1488.3,825.2,1488.3,876.6,1456.7,908.2z"/>
</g>
<g id="XMLID_205_">
	<g id="XMLID_207_">
		<path id="XMLID_187_" fill="#56370B" d="M1400,982.1c-72,0-130.6-58.6-130.6-130.6c0-72,58.6-130.6,130.6-130.6
			s130.6,58.6,130.6,130.6C1530.6,923.5,1472,982.1,1400,982.1z M1400,740.7c-61.1,0-110.8,49.7-110.8,110.8
			c0,61.1,49.7,110.8,110.8,110.8s110.8-49.7,110.8-110.8C1510.8,790.4,1461.1,740.7,1400,740.7z M1400,942.4
			c-50.1,0-90.9-40.8-90.9-90.9c0-50.1,40.8-90.9,90.9-90.9s90.9,40.8,90.9,90.9C1490.9,901.6,1450.1,942.4,1400,942.4z M1400,780.4
			c-39.2,0-71,31.9-71,71c0,39.2,31.9,71,71,71s71-31.9,71-71C1471,812.3,1439.2,780.4,1400,780.4z"/>
	</g>
</g>
<g id="XMLID_251_">
	<path id="XMLID_172_" fill="#56370B" d="M2222.6,2028.5H577.4v-103.2h1645.2V2028.5z M597.3,2008.6h1605.4v-63.5H597.3V2008.6z"/>
</g>
<g id="XMLID_250_">
	<path id="XMLID_169_" fill="#56370B" d="M2265.5,2111.9h-1731v-103.2h1731V2111.9z M554.4,2092h1691.3v-63.5H554.4V2092z"/>
</g>
<g id="XMLID_249_">
	<path id="XMLID_166_" fill="#56370B" d="M2308.4,2195.3H491.6V2092h1816.8V2195.3z M511.5,2175.4h1777.1v-63.5H511.5V2175.4z"/>
</g>
<g id="XMLID_248_">
	<path id="XMLID_122_" fill="#56370B" d="M2351.3,2278.7H448.7v-103.2h1902.6V2278.7z M468.6,2258.8h1862.9v-63.5H468.6V2258.8z"/>
</g>
<g id="XMLID_247_">
	<path id="XMLID_117_" fill="#56370B" d="M2394.2,2362H405.8v-103.2h1988.4V2362z M425.7,2342.2h1948.7v-63.5H425.7V2342.2z"/>
</g>
<g id="XMLID_246_">
	<path id="XMLID_113_" fill="#56370B" d="M2437.1,2445.4H362.9v-103.2h2074.2V2445.4z M382.8,2425.6h2034.5V2362H382.8V2425.6z"/>
</g>
<g id="XMLID_245_">
	<path id="XMLID_110_" fill="#56370B" d="M2480,2528.8H320v-103.2h2160V2528.8z M339.9,2509h2120.3v-63.5H339.9V2509z"/>
</g>
<g id="XMLID_253_">
	<rect id="XMLID_109_" x="118.2" y="1935.2" fill="#56370B" width="19.9" height="240.3"/>
</g>
<g id="XMLID_258_">
	<rect id="XMLID_108_" x="278.4" y="1935.2" fill="#56370B" width="19.9" height="416.9"/>
</g>
<g id="XMLID_256_">
	<rect id="XMLID_107_" x="362.9" y="1935.2" fill="#56370B" width="19.9" height="99"/>
</g>
<g id="XMLID_267_">
	<rect id="XMLID_106_" x="362.9" y="2205.2" fill="#56370B" width="19.9" height="239.9"/>
</g>
<g id="XMLID_254_">
	<rect id="XMLID_105_" x="60.6" y="1935.2" fill="#56370B" width="19.9" height="120.1"/>
</g>
<g id="XMLID_252_">
	<rect id="XMLID_104_" x="362.9" y="2086.9" fill="#56370B" width="19.9" height="24.4"/>
</g>
<g id="XMLID_265_">
	<rect id="XMLID_103_" x="118.2" y="2256.5" fill="#56370B" width="19.9" height="24.4"/>
</g>
<g id="XMLID_261_">
	<rect id="XMLID_102_" x="448.7" y="1935.2" fill="#56370B" width="19.9" height="250.2"/>
</g>
<g id="XMLID_270_">
	<rect id="XMLID_101_" x="2662" y="1935.2" fill="#56370B" width="19.9" height="240.3"/>
</g>
<g id="XMLID_269_">
	<rect id="XMLID_100_" x="2501.7" y="1935.2" fill="#56370B" width="19.9" height="416.9"/>
</g>
<g id="XMLID_268_">
	<rect id="XMLID_99_" x="2417.2" y="1935.2" fill="#56370B" width="19.9" height="99"/>
</g>
<g id="XMLID_266_">
	<rect id="XMLID_98_" x="2417.2" y="2205.2" fill="#56370B" width="19.9" height="239.9"/>
</g>
<g id="XMLID_264_">
	<rect id="XMLID_97_" x="2719.6" y="1935.2" fill="#56370B" width="19.9" height="120.1"/>
</g>
<g id="XMLID_262_">
	<rect id="XMLID_96_" x="2417.2" y="2086.9" fill="#56370B" width="19.9" height="24.4"/>
</g>
<g id="XMLID_260_">
	<rect id="XMLID_95_" x="2662" y="2256.5" fill="#56370B" width="19.9" height="24.4"/>
</g>
<g id="XMLID_255_">
	<rect id="XMLID_94_" x="2331.4" y="1935.2" fill="#56370B" width="19.9" height="250.2"/>
</g>
<g id="XMLID_301_">
	<g id="XMLID_277_">
		<polygon id="XMLID_93_" fill="#779221" points="2620.6,2748.1 2589.9,2717.5 2604,2703.4 2620.6,2720.1 2637.2,2703.4 
			2651.2,2717.5 		"/>
	</g>
	<g id="XMLID_278_">
		<polygon id="XMLID_92_" fill="#779221" points="2398.7,2748.1 2368,2717.5 2382,2703.4 2398.7,2720.1 2415.3,2703.4 
			2429.3,2717.5 		"/>
	</g>
	<g id="XMLID_279_">
		<polygon id="XMLID_91_" fill="#779221" points="2176.7,2748.1 2146.1,2717.5 2160.1,2703.4 2176.7,2720.1 2193.4,2703.4 
			2207.4,2717.5 		"/>
	</g>
	<g id="XMLID_280_">
		<polygon id="XMLID_90_" fill="#779221" points="1954.8,2748.1 1924.2,2717.5 1938.2,2703.4 1954.8,2720.1 1971.4,2703.4 
			1985.5,2717.5 		"/>
	</g>
	<g id="XMLID_281_">
		<polygon id="XMLID_89_" fill="#779221" points="1732.9,2748.1 1702.2,2717.5 1716.3,2703.4 1732.9,2720.1 1749.5,2703.4 
			1763.5,2717.5 		"/>
	</g>
	<g id="XMLID_282_">
		<polygon id="XMLID_88_" fill="#779221" points="1511,2748.1 1480.3,2717.5 1494.3,2703.4 1511,2720.1 1527.6,2703.4 
			1541.6,2717.5 		"/>
	</g>
	<g id="XMLID_283_">
		<polygon id="XMLID_87_" fill="#779221" points="1289,2748.1 1258.4,2717.5 1272.4,2703.4 1289,2720.1 1305.7,2703.4 
			1319.7,2717.5 		"/>
	</g>
	<g id="XMLID_284_">
		<polygon id="XMLID_86_" fill="#779221" points="1067.1,2748.1 1036.5,2717.5 1050.5,2703.4 1067.1,2720.1 1083.7,2703.4 
			1097.8,2717.5 		"/>
	</g>
	<g id="XMLID_285_">
		<polygon id="XMLID_85_" fill="#779221" points="845.2,2748.1 814.5,2717.5 828.6,2703.4 845.2,2720.1 861.8,2703.4 875.8,2717.5 
					"/>
	</g>
	<g id="XMLID_286_">
		<polygon id="XMLID_84_" fill="#779221" points="623.3,2748.1 592.6,2717.5 606.6,2703.4 623.3,2720.1 639.9,2703.4 653.9,2717.5 
					"/>
	</g>
	<g id="XMLID_287_">
		<polygon id="XMLID_83_" fill="#779221" points="401.3,2748.1 370.7,2717.5 384.7,2703.4 401.3,2720.1 418,2703.4 432,2717.5 		"/>
	</g>
	<g id="XMLID_288_">
		<polygon id="XMLID_82_" fill="#779221" points="179.4,2748.1 148.8,2717.5 162.8,2703.4 179.4,2720.1 196,2703.4 210.1,2717.5 		
			"/>
	</g>
</g>
<g id="XMLID_336_">
	<g id="XMLID_348_">
		<polygon id="XMLID_81_" fill="#779221" points="2509.6,2612.5 2479,2581.9 2493,2567.8 2509.6,2584.5 2526.2,2567.8 
			2540.3,2581.9 		"/>
	</g>
	<g id="XMLID_347_">
		<polygon id="XMLID_80_" fill="#779221" points="2287.7,2612.5 2257,2581.9 2271.1,2567.8 2287.7,2584.5 2304.3,2567.8 
			2318.4,2581.9 		"/>
	</g>
	<g id="XMLID_346_">
		<polygon id="XMLID_79_" fill="#779221" points="2065.8,2612.5 2035.1,2581.9 2049.2,2567.8 2065.8,2584.5 2082.4,2567.8 
			2096.4,2581.9 		"/>
	</g>
	<g id="XMLID_345_">
		<polygon id="XMLID_72_" fill="#779221" points="1843.8,2612.5 1813.2,2581.9 1827.2,2567.8 1843.8,2584.5 1860.5,2567.8 
			1874.5,2581.9 		"/>
	</g>
	<g id="XMLID_344_">
		<polygon id="XMLID_61_" fill="#779221" points="1621.9,2612.5 1591.3,2581.9 1605.3,2567.8 1621.9,2584.5 1638.5,2567.8 
			1652.6,2581.9 		"/>
	</g>
	<g id="XMLID_343_">
		<polygon id="XMLID_60_" fill="#779221" points="1400,2612.5 1369.3,2581.9 1383.4,2567.8 1400,2584.5 1416.6,2567.8 
			1430.7,2581.9 		"/>
	</g>
	<g id="XMLID_342_">
		<polygon id="XMLID_59_" fill="#779221" points="1178.1,2612.5 1147.4,2581.9 1161.5,2567.8 1178.1,2584.5 1194.7,2567.8 
			1208.7,2581.9 		"/>
	</g>
	<g id="XMLID_341_">
		<polygon id="XMLID_58_" fill="#779221" points="956.2,2612.5 925.5,2581.9 939.5,2567.8 956.2,2584.5 972.8,2567.8 986.8,2581.9 
					"/>
	</g>
	<g id="XMLID_340_">
		<polygon id="XMLID_57_" fill="#779221" points="734.2,2612.5 703.6,2581.9 717.6,2567.8 734.2,2584.5 750.8,2567.8 764.9,2581.9 
					"/>
	</g>
	<g id="XMLID_339_">
		<polygon id="XMLID_56_" fill="#779221" points="512.3,2612.5 481.6,2581.9 495.7,2567.8 512.3,2584.5 528.9,2567.8 543,2581.9 		
			"/>
	</g>
	<g id="XMLID_338_">
		<polygon id="XMLID_55_" fill="#779221" points="290.4,2612.5 259.7,2581.9 273.8,2567.8 290.4,2584.5 307,2567.8 321,2581.9 		"/>
	</g>
</g>
<g id="XMLID_543_" opacity="0.8">
	<g id="XMLID_16_">
		<path id="XMLID_15_" fill="#FFFFFF" d="M384.7,314.8c7.7,0,15.2,0.8,22.5,2.2c12.9-54.1,61.5-94.3,119.5-94.3
			c45.3,0,84.8,24.6,106.1,61c14.6-9.3,31.8-14.9,50.4-14.9c35.7,0,66.4,20.2,82.3,49.5c9.1-2.2,18.5-3.5,28.3-3.5
			c66.2,0,119.8,53.6,119.8,119.8c0,66.2-53.6,119.8-119.8,119.8c-18.1,0-35.2-4.1-50.6-11.3c-22.5,29.5-57.9,48.7-97.8,48.7
			c-22.9,0-44.2-6.4-62.6-17.2c-22.1,21.2-52.1,34.3-85.1,34.3c-42.8,0-80.4-21.8-102.4-55c-3.5,0.3-6.9,0.5-10.5,0.5
			c-66.2,0-119.8-53.6-119.8-119.8C264.9,368.4,318.5,314.8,384.7,314.8z"/>
	</g>
</g>
</svg>
